#tb 0: 1/25
#media_type 0: video
#codec_id 0: h264
#dimensions 0: 352x288
#sar 0: 0/1
0,         -1,          0,        1,     3915, 0x91887d2c
0,          0,          1,        1,     4544, 0x3ad1a8fc
0,          1,          2,        1,     4176, 0x4fa5fb19
0,          2,          3,        1,     4586, 0x98e3d2c6
0,          3,          4,        1,     4261, 0xc73453da
0,          4,          5,        1,     4670, 0x4d55060c
0,          5,          6,        1,     3891, 0x4c6c8615
0,          6,          7,        1,     4276, 0xeeee1b32
0,          7,          8,        1,     3952, 0x4204a039
0,          8,          9,        1,     4363, 0xedab6e42
0,          9,         10,        1,     4013, 0x243daf51
0,         10,         11,        1,     4514, 0x160bb981
0,         11,         12,        1,     3901, 0xf9f77b10
0,         12,         13,        1,     4171, 0xa6abf3e7
0,         13,         14,        1,     4228, 0x94cd25b1
0,         14,         15,        1,     4239, 0xf6e12044
0,         15,         16,        1,     4255, 0xacd84e1d
0,         16,         17,        1,     4277, 0xce2345c5
0,         17,         18,        1,     4336, 0x55ab4605
0,         18,         19,        1,     3689, 0x3b2b13ed
0,         19,         20,        1,     4163, 0xd652092d
0,         20,         21,        1,     3828, 0xf9dd6755
0,         21,         22,        1,     4216, 0x83cd269b
0,         22,         23,        1,     3800, 0xe5a54ba1
0,         23,         24,        1,     4314, 0x33753f13
0,         24,         25,        1,     3866, 0xb59a7e11
0,         25,         26,        1,     3865, 0xa5ed7033
0,         26,         27,        1,     3929, 0x211b7b80
0,         27,         28,        1,     3984, 0xbbf6a5e0
0,         28,         29,        1,     3987, 0x2818b782
0,         29,         30,        1,     4033, 0xc9f5cb2b
0,         30,         31,        1,     4096, 0x6834e4c2
0,         31,         32,        1,     3548, 0xde08c9c9
0,         32,         33,        1,     4575, 0x9855e051
0,         33,         34,        1,     3298, 0xb4c259d1
0,         34,         35,        1,     4145, 0xe246f989
0,         35,         36,        1,     3369, 0x0948817c
0,         36,         37,        1,     4179, 0x24c90004
0,         37,         38,        1,     3402, 0x37517a3f
0,         38,         39,        1,     4270, 0xa2f445c2
0,         39,         40,        1,     3445, 0x276cb366
0,         40,         41,        1,     3826, 0x14695a66
0,         41,         42,        1,     3808, 0x62e7553b
0,         42,         43,        1,     3840, 0xd1a16948
0,         43,         44,        1,     3825, 0xf8355eae
0,         44,         45,        1,     3857, 0xb4305ff0
0,         45,         46,        1,     3818, 0xdb71573b
0,         46,         47,        1,     3812, 0x312363e6
0,         47,         48,        1,     3874, 0x643a8178
0,         48,         49,        1,     3522, 0x6542dec1
